<?xml version="1.0" encoding="utf-8"?>
<!-- Generator: Adobe Illustrator 24.3.0, SVG Export Plug-In . SVG Version: 6.00 Build 0)  -->
<svg version="1.1" id="Capa_1" xmlns="http://www.w3.org/2000/svg" xmlns:xlink="http://www.w3.org/1999/xlink" x="0px" y="0px"
	 width="1200px" height="759.5px" viewBox="0 0 1200 759.5" style="enable-background:new 0 0 1200 759.5;" xml:space="preserve">
<style type="text/css">
	.st0{fill:#2B4A9A;stroke:#000000;stroke-width:2;stroke-miterlimit:10;}
	.st1{fill:#E5231E;stroke:#000000;stroke-width:2;stroke-miterlimit:10;}
</style>
<polygon class="st0" points="300.6,759.5 0,759.5 0,569.6 0,379.7 300.6,379.7 "/>
<polygon class="st0" points="601.3,759.5 300.6,759.5 300.6,569.6 300.6,379.7 601.3,379.7 "/>
<image style="overflow:visible;" width="1302" height="787" xlink:href="../../comic/01.JPG"  transform="matrix(0.75 0 0 0.75 111.75 847.1653)">
</image>
<polygon class="st1" points="805.1,759.5 929,759.5 1074,759.5 1200,759.5 1200,0 985.7,0 "/>
<polygon class="st0" points="601.3,379.7 601.3,569.6 601.3,759.5 805.1,759.5 895.4,379.7 "/>
<polygon class="st0" points="985.7,0 0,0 0,189.9 0,379.7 895.4,379.7 "/>
</svg>
