<svg width="100" height="100" viewBox="0 0 100 100" xmlns="http://www.w3.org/2000/svg">
  <!-- Fondo circular -->
  <circle cx="50" cy="50" r="45" fill="#f59e0b"/>

  <!-- Cabeza -->
  <circle cx="50" cy="40" r="18" fill="#ffb380"/>

  <!-- Pelo dinámico/puntiagudo (impaciente) -->
  <path d="M 32 30 L 30 22 L 35 28 L 38 20 L 40 28 L 45 18 L 48 28 L 52 28 L 55 18 L 60 28 L 62 20 L 65 28 L 68 22 L 70 30"
        fill="#d97706" stroke="#b45309" stroke-width="1"/>

  <!-- Ojos muy abiertos (impaciente/urgente) -->
  <circle cx="44" cy="38" r="3" fill="white" stroke="#333" stroke-width="1"/>
  <circle cx="56" cy="38" r="3" fill="white" stroke="#333" stroke-width="1"/>
  <circle cx="44" cy="38" r="1.5" fill="#333"/>
  <circle cx="56" cy="38" r="1.5" fill="#333"/>

  <!-- Boca expresiva (hablando rápido) -->
  <ellipse cx="50" cy="46" rx="6" ry="4" fill="#333"/>

  <!-- Cuerpo (chaqueta tech) -->
  <rect x="32" y="58" width="36" height="32" rx="4" fill="#d97706"/>

  <!-- Async/await símbolo -->
  <text x="50" y="72" font-size="8" fill="white" text-anchor="middle" font-weight="bold">async</text>
  <text x="50" y="82" font-size="8" fill="white" text-anchor="middle" font-weight="bold">await</text>

  <!-- Líneas de velocidad (impaciente) -->
  <line x1="20" y1="50" x2="28" y2="50" stroke="white" stroke-width="2" opacity="0.6"/>
  <line x1="22" y1="55" x2="28" y2="55" stroke="white" stroke-width="2" opacity="0.6"/>
  <line x1="72" y1="50" x2="80" y2="50" stroke="white" stroke-width="2" opacity="0.6"/>
  <line x1="72" y1="55" x2="78" y2="55" stroke="white" stroke-width="2" opacity="0.6"/>
</svg>
