<svg width="100" height="100" viewBox="0 0 100 100" xmlns="http://www.w3.org/2000/svg">
  <!-- Fondo circular -->
  <circle cx="50" cy="50" r="45" fill="#10b981"/>

  <!-- Cabeza -->
  <circle cx="50" cy="40" r="18" fill="#ffcc99"/>

  <!-- Pelo relajado -->
  <path d="M 35 28 Q 40 22 50 25 Q 60 22 65 28" fill="#8b4513" stroke="#654321" stroke-width="1"/>

  <!-- Ojos cerrados/relajados -->
  <line x1="42" y1="38" x2="46" y2="38" stroke="#333" stroke-width="2" stroke-linecap="round"/>
  <line x1="54" y1="38" x2="58" y2="38" stroke="#333" stroke-width="2" stroke-linecap="round"/>

  <!-- Sonrisa relajada -->
  <path d="M 40 45 Q 50 48 60 45" fill="none" stroke="#333" stroke-width="1.5" stroke-linecap="round"/>

  <!-- Cuerpo (hoodie casual) -->
  <rect x="32" y="58" width="36" height="32" rx="6" fill="#047857"/>

  <!-- Flexbox icon -->
  <rect x="42" y="68" width="4" height="8" rx="1" fill="white"/>
  <rect x="48" y="68" width="4" height="12" rx="1" fill="white"/>
  <rect x="54" y="68" width="4" height="6" rx="1" fill="white"/>

  <!-- Capucha -->
  <path d="M 30 58 L 32 50 Q 50 48 68 50 L 70 58" fill="#065f46"/>
</svg>
